<svg xmlns="http://www.w3.org/2000/svg" viewBox="1300 960 670 280" role="img" aria-labelledby="title">
  <title>Kiro</title>
  <g fill="#111111">
    <path d="M1472.14,1150.74c-7.03-13.29-14.13-24.35-21.29-33.2c-7.16-8.84-14.9-16.01-23.24-21.48c21.35-12.48,38.2-29.8,50.57-51.92c12.37-22.12,18.54-46.99,18.54-74.58h-42.94c0,14.32-2.48,27.78-7.42,40.41c-4.95,12.63-11.72,23.62-20.32,32.99c-8.58,9.39-18.74,16.74-30.45,22.06c-11.72,5.34-24.2,8.01-37.49,8.01h-7.8V969.55h-46.86v261.62h46.86v-115.2h3.9c8.85,0,16.66,0.85,23.43,2.55c6.76,1.69,13.08,4.68,18.93,8.98c5.87,4.29,11.45,10.01,16.8,17.17c5.32,7.16,10.85,16.08,16.59,26.75l32.4,59.75h53.5L1472.14,1150.74z"/>
    <path d="M1554.86,1043.75v187.43h42.94v-187.43H1554.86z"/>
    <path d="M1700.95,1045.89c-10.8,4.03-20.04,9.82-27.72,17.38c-7.69,7.55-13.61,16.66-17.77,27.32c-4.18,10.69-6.24,22.66-6.24,35.93v104.66h42.94v-106.22c0-13.01,4.03-23.29,12.11-30.85c8.06-7.55,19-11.32,32.8-11.32v-42.94C1723.8,1039.84,1711.75,1041.86,1700.95,1045.89z"/>
    <path d="M1953.81,1095.09c-4.95-11.85-11.85-22.19-20.71-31.04c-8.85-8.85-19.19-15.75-31.04-20.71c-11.85-4.93-24.66-7.42-38.46-7.42c-13.55,0-26.3,2.48-38.27,7.42c-11.98,4.95-22.32,11.85-31.04,20.71c-8.72,8.85-15.63,19.19-20.69,31.04c-5.08,11.85-7.63,24.67-7.63,38.46c0,13.55,2.55,26.3,7.63,38.27c5.06,11.98,11.97,22.32,20.69,31.04c8.72,8.72,19.06,15.63,31.04,20.69c11.97,5.08,24.72,7.63,38.27,7.63c13.8,0,26.61-2.55,38.46-7.63c11.85-5.06,22.19-11.97,31.04-20.69c8.85-8.72,15.75-19.06,20.71-31.04c4.93-11.97,7.42-24.72,7.42-38.27C1961.22,1119.76,1958.74,1106.94,1953.81,1095.09z M1914.17,1155.22c-2.74,6.63-6.58,12.37-11.53,17.17c-4.93,4.82-10.74,8.66-17.37,11.53c-6.64,2.87-13.87,4.29-21.67,4.29c-7.8,0-15.03-1.42-21.67-4.29c-6.64-2.87-12.37-6.71-17.17-11.53c-4.82-4.81-8.66-10.55-11.53-17.17c-2.85-6.64-4.29-13.87-4.29-21.67c0-7.8,1.44-15.03,4.29-21.67c2.87-6.64,6.71-12.43,11.53-17.37c4.81-4.95,10.53-8.79,17.17-11.53c6.64-2.73,13.87-4.1,21.67-4.1c7.81,0,15.03,1.37,21.67,4.1c6.63,2.74,12.43,6.58,17.37,11.53c4.95,4.93,8.79,10.72,11.53,17.37c2.73,6.64,4.1,13.87,4.1,21.67C1918.26,1141.36,1916.89,1148.58,1914.17,1155.22z"/>
    <path d="M1604.81,975.33c-7.71-7.71-20.22-7.71-27.92,0l-0.56,0.56l-0.56-0.56c-7.71-7.71-20.21-7.71-27.92,0c-3.85,3.85-5.79,8.91-5.79,13.96c0,5.06,1.93,10.11,5.79,13.97l28.49,28.49l27.92-27.93l0.56-0.56c3.86-3.86,5.79-8.91,5.79-13.97C1610.6,984.25,1608.67,979.19,1604.81,975.33z"/>
  </g>
</svg>
